# xmcd
#
# Track frame offsets:
#	150
#	13566
#	29678
#	44863
#	60045
#	77105
#	92908
#
# Disc length: 1489 seconds
#
# Revision: 1
# Processed by: cddbd v1.5.2PL0 Copyright (c) Steve Scherf et al.
# Submitted via: audiograbber 1.80
#
DISCID=5305cf07
DTITLE=L.O.C. - XXX COUTURE
DYEAR=1900
DGENRE=
TTITLE0=SUPERBIA
TTITLE1=SÅ BIZART
TTITLE2=XXXCOUTURE
TTITLE3=SL!K
TTITLE4=FELLATIO
TTITLE5=UPTIVUPTI
TTITLE6=BARE EN PIGE
EXTD=
EXTT0=
EXTT1=
EXTT2=
EXTT3=
EXTT4=
EXTT5=
EXTT6=
PLAYORDER=
